<?xml version="1.0" encoding="utf-8"?>
<!-- Generator: Adobe Illustrator 18.1.1, SVG Export Plug-In . SVG Version: 6.00 Build 0)  -->
<!DOCTYPE svg PUBLIC "-//W3C//DTD SVG 1.1//EN" "http://www.w3.org/Graphics/SVG/1.1/DTD/svg11.dtd">
<svg version="1.1" id="Layer_1" xmlns="http://www.w3.org/2000/svg" xmlns:xlink="http://www.w3.org/1999/xlink" x="0px" y="0px"
	 viewBox="0 0 612 792" enable-background="new 0 0 612 792" xml:space="preserve">
<g>
	<path fill="none" stroke="#FEFEFE" stroke-width="2" stroke-linecap="round" stroke-linejoin="round" stroke-miterlimit="10" d="
		M490.5,437.5c-0.3-9.3-0.8-18.7-1-28c-0.1-6.2,0.4-12.3,0.4-18.5c0-2.1,1.1-5-2.5-5.4c-2.7-0.3-4.6,0.6-6.1,3.4
		c-1.8,3.3-1.9,6.7-2.9,10.1c-0.8,3-1.5,6.1-2.5,9c-2.2,6.3-7.4,9.4-14,8.5c-9.5-1.3-18.9-3.5-28.5-4c-10.3-0.6-20.7-1.4-31-2
		c-15.4-0.9-30.6-2.7-45-9c-7.3-3.2-14.9-2.9-22.5-1.9c-4,0.5-8,1-12.5,0.9c0-2.5,0-5,0-7.5c-16.6-1.3-32.6,0.4-48.5,2.4
		c-4.7,0.6-9.6,2.2-14.5,0.7"/>
	<path fill="none" stroke="#FEFEFE" stroke-width="2" stroke-linecap="round" stroke-linejoin="round" stroke-miterlimit="10" d="
		M124.5,437.5c2.5-5.9,1.9-12.3,2.4-18.5c0.4-4.3,0.8-8.7,3.7-11.9c2.7-3,2.5-5.8,1.2-9.2c7.8,1.1,8.3-5.1,9.9-10.1
		c2.9,1.1,3,3.8,4.4,5.8c4.1-1.9,8.2-1.1,12.4-0.1c3.3,0.8,5.9,0.8,7.6-3c0.9-2,2.9-3.4,4.2-4.9c3.5,1.4,3.9,4,4.1,6.3
		c0.4,3.8,2.4,5.5,6.1,5.5c0.7,0,1.4,0.3,2,0.4c5.9,1.1,6.4,1.6,4.9,7.1c-0.4,1.3-1,2.6-0.9,4.1c4.9,2.9,8.4-1.5,12.5-2.6
		c1-0.3,0.6-1.6,0.5-2.4c-0.5-4,2.2-5.3,5-4.4c5.7,1.9,10.5-0.8,15.5-2.2c5.6-1.6,11.1-3.5,17.3-2.9c-2.6-6-2.2-7.5,2.3-10.5
		c1.5-1,3.3-1.7,5-2.5c6.3-3,10-2.8,13,0.5c3.8,4.2,4,9.1,0.5,15"/>
	<path fill="none" stroke="#FEFEFE" stroke-width="2" stroke-linecap="round" stroke-linejoin="round" stroke-miterlimit="10" d="
		M216.5,355.5c-0.2,2.7,0.5,5.1,2.5,7c6.4-0.8,8.2,0,9,4c1,4.9-2.6,9.9-8.5,11.5c-4.6,1.3-6.5,0.2-8.5-5c-0.3-0.8-0.6-1.7-0.8-2.5
		c-2.2-0.4-3.4,0.6-4.2,2.5"/>
	<path fill="none" stroke="#FEFEFE" stroke-width="2" stroke-linecap="round" stroke-linejoin="round" stroke-miterlimit="10" d="
		M227.5,374c3.8,3.3,7.7,6.7,11.5,10"/>
	<path fill="none" stroke="#FEFEFE" stroke-width="2" stroke-linecap="round" stroke-linejoin="round" stroke-miterlimit="10" d="
		M216,358c-4.2,3.4-4.4,3.4-7.5,0.5"/>
	<path fill="none" stroke="#FEFEFE" stroke-width="2" stroke-linecap="round" stroke-linejoin="round" stroke-miterlimit="10" d="
		M209.5,361c-2,2.6-4.8,3.9-8,4.5"/>
	<path fill="none" stroke="#FEFEFE" stroke-width="2" stroke-linecap="round" stroke-linejoin="round" stroke-miterlimit="10" d="
		M204,365.5c2,1.3,2.3,3.5,3,5.5"/>
</g>
<line fill="none" stroke="#FEFEFE" stroke-width="2" stroke-linecap="round" stroke-linejoin="round" stroke-miterlimit="10" x1="124.5" y1="437.8" x2="490.5" y2="437.8"/>
<line fill="none" stroke="#FEFEFE" stroke-width="2" stroke-linecap="round" stroke-linejoin="round" stroke-miterlimit="10" x1="124.5" y1="438.8" x2="490.5" y2="438.8"/>
</svg>
